<svg xmlns="http://www.w3.org/2000/svg" viewBox="0 0 512 512">
<defs>
<linearGradient id="bg" x1="0" y1="0" x2="1" y2="1"><stop offset="0" stop-color="rgb(16,185,129)"/><stop offset="1" stop-color="rgb(15,118,110)"/></linearGradient>
<filter id="blur"><feGaussianBlur stdDeviation="11"/></filter>
</defs>
<rect width="512" height="512" rx="112" fill="url(#bg)"/>
<path d="M172 110H340Q376 110 376 146V394Q376 430 340 430H172Q136 430 136 394V146Q136 110 172 110Z" fill="rgb(4,60,50)" opacity="0.35" filter="url(#blur)"/>
<path d="M172 96H340Q376 96 376 132V380Q376 416 340 416H172Q136 416 136 380V132Q136 96 172 96Z" fill="rgb(255,255,255)"/>
<path d="M176 134H272Q280 134 280 142V142Q280 150 272 150H176Q168 150 168 142V142Q168 134 176 134Z" fill="rgb(110,231,183)"/>
<path d="M174 164H234Q240 164 240 170V170Q240 176 234 176H174Q168 176 168 170V170Q168 164 174 164Z" fill="rgb(209,250,229)"/>
<path d="M178 302H198Q208 302 208 312V372Q208 372 208 372H168Q168 372 168 372V312Q168 302 178 302Z" fill="rgb(110,231,183)"/>
<path d="M238 262H258Q268 262 268 272V372Q268 372 268 372H228Q228 372 228 372V272Q228 262 238 262Z" fill="rgb(52,211,153)"/>
<path d="M298 212H318Q328 212 328 222V372Q328 372 328 372H288Q288 372 288 372V222Q288 212 298 212Z" fill="rgb(5,150,105)"/>
<path d="M163 372H349Q352 372 352 375V375Q352 378 349 378H163Q160 378 160 375V375Q160 372 163 372Z" fill="rgb(209,250,229)"/>
</svg>
